<svg width="500" height="500" viewBox="0 0 500 500" fill="none" xmlns="http://www.w3.org/2000/svg">
<g clip-path="url(#clip0_2003_136)">
<path d="M453.125 250C453.125 303.872 431.724 355.538 393.631 393.631C355.538 431.724 303.872 453.125 250 453.125C196.128 453.125 144.462 431.724 106.369 393.631C68.2756 355.538 46.875 303.872 46.875 250C46.875 196.128 68.2756 144.462 106.369 106.369C144.462 68.2756 196.128 46.875 250 46.875C303.872 46.875 355.538 68.2756 393.631 106.369C431.724 144.462 453.125 196.128 453.125 250ZM0 250C0 316.304 26.3392 379.893 73.2233 426.777C120.107 473.661 183.696 500 250 500C316.304 500 379.893 473.661 426.777 426.777C473.661 379.893 500 316.304 500 250C500 183.696 473.661 120.107 426.777 73.2233C379.893 26.3392 316.304 0 250 0C183.696 0 120.107 26.3392 73.2233 73.2233C26.3392 120.107 0 183.696 0 250ZM226.562 117.188V250C226.562 257.812 230.469 265.137 237.012 269.531L330.762 332.031C341.504 339.258 356.055 336.328 363.281 325.488C370.508 314.648 367.578 300.195 356.738 292.969L273.438 237.5V117.188C273.438 104.199 262.988 93.75 250 93.75C237.012 93.75 226.562 104.199 226.562 117.188Z" fill="#46FFBE"/>
</g>
<defs>
<clipPath id="clip0_2003_136">
<rect width="500" height="500" fill="white"/>
</clipPath>
</defs>
</svg>
