<svg width="384" height="512" viewBox="0 0 384 512" fill="none" xmlns="http://www.w3.org/2000/svg">
<g clip-path="url(#clip0_2008_121)">
<path d="M144.7 98.7002C123.7 132.8 111.6 173 111.6 216C111.6 314 174.4 397.4 262 427.7C249.6 430.5 236.7 432 223.4 432C126.6 432 48 353.3 48 256C48 187.1 87.4 127.6 144.8 98.7002H144.7ZM206.8 32.7002C91.1 41.2002 0 137.9 0 256C0 379.7 100 480 223.5 480C271.3 480 315.5 465 351.9 439.4C353.8 438.1 355.6 436.7 357.4 435.4C362.2 431.8 366.8 428 371.3 424C374 421.6 376.6 419.2 379.2 416.7C384.2 411.8 385.5 404.2 382.3 398C379.1 391.8 372.2 388.3 365.3 389.5C361.6 390.1 357.9 390.7 354.2 391.1C349.2 391.6 344.1 392 338.9 392.1C337.7 392.1 336.4 392.1 335.2 392.1H334.9C238.1 391.9 159.7 313.2 159.7 216.1C159.7 161.3 184.6 112.4 223.8 80.1002C224.8 79.2002 225.9 78.4002 227 77.5002C231 74.3002 235.2 71.3002 239.5 68.5002C242.6 66.5002 245.8 64.5002 249.1 62.7002C255.2 59.2002 258.3 52.2002 256.8 45.4002C255.3 38.6002 249.5 33.5002 242.5 32.9002C238.9 32.6002 235.4 32.4002 231.8 32.3002C229.1 32.2002 226.3 32.2002 223.6 32.2002C220.3 32.2002 217.1 32.3002 213.8 32.4002C211.5 32.5002 209.2 32.6002 206.9 32.8002L206.8 32.7002Z" fill="#46FFBE"/>
</g>
<defs>
<clipPath id="clip0_2008_121">
<rect width="384" height="512" fill="white"/>
</clipPath>
</defs>
</svg>
