<svg width="512" height="512" viewBox="0 0 512 512" fill="none" xmlns="http://www.w3.org/2000/svg">
<g clip-path="url(#clip0_2008_129)">
<path d="M375.7 19.7002C374.2 11.7002 368.8 5.00019 361.3 1.90019C353.8 -1.19981 345.2 -0.299809 338.5 4.30019L256 61.1002L173.5 4.20019C166.8 -0.399809 158.2 -1.29981 150.7 1.80019C143.2 4.90019 137.8 11.6002 136.3 19.6002L118.2 118.1L19.6999 136.3C11.6999 137.8 4.99995 143.2 1.89995 150.7C-1.20005 158.2 -0.300053 166.8 4.29995 173.5L61.0999 256L4.19995 338.5C-0.400053 345.2 -1.30005 353.8 1.79995 361.3C4.89995 368.8 11.5999 374.3 19.5999 375.7L118.1 393.8L136.2 492.3C137.7 500.3 143.1 507 150.6 510.1C158.1 513.2 166.7 512.3 173.4 507.7L256 450.9L338.5 507.8C345.2 512.4 353.8 513.3 361.3 510.2C368.8 507.1 374.2 500.4 375.7 492.4L393.8 393.9L492.3 375.8C500.3 374.3 507 368.9 510.1 361.4C513.2 353.9 512.3 345.3 507.7 338.6L450.9 256L507.8 173.5C512.4 166.8 513.3 158.2 510.2 150.7C507.1 143.2 500.4 137.8 492.4 136.3L393.9 118.2L375.7 19.7002ZM269.6 110L335.2 64.8002L349.6 143.1C351.4 152.9 359.1 160.6 368.9 162.4L447.2 176.8L402 242.4C396.3 250.6 396.3 261.4 402 269.6L447.2 335.2L368.9 349.6C359.1 351.4 351.4 359.1 349.6 368.9L335.2 447.2L269.6 402C261.4 396.3 250.6 396.3 242.4 402L176.8 447.2L162.4 368.9C160.6 359.1 152.9 351.4 143.1 349.6L64.7999 335.2L110 269.6C115.7 261.4 115.7 250.6 110 242.4L64.7999 176.8L143.1 162.4C152.9 160.6 160.6 152.9 162.4 143.1L176.8 64.8002L242.4 110C250.6 115.7 261.4 115.7 269.6 110ZM256 368C285.704 368 314.192 356.2 335.196 335.196C356.2 314.192 368 285.704 368 256C368 226.296 356.2 197.808 335.196 176.804C314.192 155.8 285.704 144 256 144C226.296 144 197.808 155.8 176.804 176.804C155.8 197.808 144 226.296 144 256C144 285.704 155.8 314.192 176.804 335.196C197.808 356.2 226.296 368 256 368ZM192 256C192 239.026 198.743 222.748 210.745 210.745C222.747 198.743 239.026 192 256 192C272.974 192 289.252 198.743 301.255 210.745C313.257 222.748 320 239.026 320 256C320 272.974 313.257 289.253 301.255 301.255C289.252 313.257 272.974 320 256 320C239.026 320 222.747 313.257 210.745 301.255C198.743 289.253 192 272.974 192 256Z" fill="#46FFBE"/>
</g>
<defs>
<clipPath id="clip0_2008_129">
<rect width="512" height="512" fill="white"/>
</clipPath>
</defs>
</svg>
